<svg version="1.1" xmlns="http://www.w3.org/2000/svg" xmlns:xlink="http://www.w3.org/1999/xlink" x="0px" y="0px"
	 viewBox="0 0 283.5 283.5" style="enable-background:new 0 0 283.5 283.5;" xml:space="preserve">
<style type="text/css">
	.st0HyLogo{fill:#99d066;}
	.st1HyLogo{fill:#007c91;}
</style>
<g>
	<path class="st0HyLogo" d="M49.1,96.8C24,83.9,24,76.9,24,68.1v-44h29.8v54.6l24,11.4V0H0v68.1c0,22.6,10,35.8,38.3,50.2l103.4,48.9
		v-26.6L49.1,96.8z"/>
	<path class="st0HyLogo" d="M37,144.4c-2.9-1.3-27.8-12.1-37-27.3v166.4h77.8v-73l-24-11.4v60.3H24v-94.7l117.7,55.7v-26.6L37,144.4z"/>
</g>
<g>
	<path class="st1HyLogo" d="M234.3,96.8c25.1-12.9,25.1-19.9,25.1-28.8V24h-29.8v54.6l-24,11.4V0h77.8v68.1c0,22.6-10,35.8-38.3,50.2
		l-103.4,48.9v-26.6L234.3,96.8z"/>
	<path class="st1HyLogo" d="M246.5,144.4c2.9-1.3,27.8-12.1,37-27.3v166.4h-77.8v-73l24-11.4v60.3h29.8v-94.7l-117.8,55.7v-26.6
		L246.5,144.4z"/>
</g>
</svg>
